# xmcd
#
# Track frame offsets:
#	150
#	22248
#	36062
#	52971
#	68588
#	80402
#	96552
#	112920
#	130981
#	145036
#	165194
#
# Disc length: 2485 seconds
#
# Revision: 0
# Processed by: cddbd v1.5.1PL2 Copyright (c) Steve Scherf et al.
# Submitted via: dBpowerAMP V4.0
#
DISCID=8909b30b
DTITLE=Guitarra Chill Lounge - Guitarra Chill Lounge
DYEAR=1900
DGENRE=
TTITLE0=Late Nigth Lola
TTITLE1=Reservoir
TTITLE2=Glasshouse
TTITLE3=Snorkel
TTITLE4=Spydog
TTITLE5=Apeture
TTITLE6=Cinematheque
TTITLE7=Froozebox
TTITLE8=Two Clicks
TTITLE9=Overbored
TTITLE10=Get Luna
EXTD=
EXTT0=
EXTT1=
EXTT2=
EXTT3=
EXTT4=
EXTT5=
EXTT6=
EXTT7=
EXTT8=
EXTT9=
EXTT10=
PLAYORDER=
